<svg width="500" height="500" viewBox="0 0 500 500" fill="none" xmlns="http://www.w3.org/2000/svg">
<path fill-rule="evenodd" clip-rule="evenodd" d="M409.226 254.304H95.142C103.036 208.921 170.333 173.472 252.184 173.472C334.035 173.472 401.332 208.921 409.226 254.304Z" fill="#502424"/>
<path fill-rule="evenodd" clip-rule="evenodd" d="M407.995 254.062L385.231 239.923L363.292 253.549L341.354 239.923L318.707 253.988L296.061 239.923L274.123 253.549L252.184 239.923L229.602 253.948L207.599 239.923L185.596 253.948L163.014 239.923L141.076 253.549L119.137 239.923L96.3731 254.062H94.3679L150.984 452H353.384L410 254.062H407.995Z" fill="#EA8C55"/>
<path fill-rule="evenodd" clip-rule="evenodd" d="M162.434 240.284L141.077 253.548L187.662 452H195.72L162.434 240.284ZM231.96 452H213.454L184.558 253.304L185.596 253.948L207.472 240.004L231.96 452ZM256.373 452H243.448L229.767 253.846L252.184 239.923L252.922 240.382L256.373 452ZM282.401 452H270.689L273.38 253.088L274.123 253.549L295.874 240.039L282.401 452ZM314.479 452H302.186L318.437 253.821L318.707 253.988L341.354 239.923L341.673 240.121L314.479 452ZM336.291 452H331.627L362.859 253.28L363.292 253.549L385.231 239.923L385.278 239.953L336.291 452ZM119.566 240.189L119.137 239.923L96.3731 254.062H94.3679L150.984 452H173.602L119.566 240.189Z" fill="#CB672C"/>
<path d="M347.723 192.56C315.877 174.886 138.245 230.026 96.4908 219.425C54.7367 208.823 224.584 121.16 315.877 131.765C407.169 142.369 379.569 210.234 347.723 192.56Z" fill="#F4E282"/>
<path d="M298.616 110.037C286.674 97.6585 178.836 124.21 161.62 114.315C144.403 104.419 252.822 60.6299 292.025 75.9303C331.228 91.2308 310.557 122.416 298.616 110.037Z" fill="#F4E282"/>
<path d="M166.553 164.282C218.215 136.005 334.443 165.263 366.123 144.488C397.803 123.714 231.892 80.932 159.016 115.897C86.1399 150.862 114.891 192.559 166.553 164.282Z" fill="#FFF1A7"/>
<path d="M203.606 130.924C182.557 131.479 166.216 128.844 160.676 127.458C157.454 104.45 159.023 91.1445 164.138 67.1342L183.362 102.884L203.442 28L235.458 103.19L252.768 56.7336C252.768 56.7336 259 75.4546 259 95.5624C259 115.67 259 121.217 259 121.217C249.306 124.222 224.656 130.37 203.606 130.924Z" fill="#502424"/>
</svg>
