<svg width="500" height="500" viewBox="0 0 500 500" fill="none" xmlns="http://www.w3.org/2000/svg">
<path fill-rule="evenodd" clip-rule="evenodd" d="M409.226 255.304H95.1419C103.036 209.921 170.333 174.472 252.184 174.472C334.035 174.472 401.332 209.921 409.226 255.304Z" fill="#502424"/>
<path fill-rule="evenodd" clip-rule="evenodd" d="M407.995 255.062L385.231 240.923L363.292 254.549L341.354 240.923L318.707 254.988L296.061 240.923L274.123 254.549L252.184 240.923L229.602 254.948L207.599 240.923L185.596 254.948L163.014 240.923L141.076 254.549L119.137 240.923L96.3731 255.062H94.3679L150.984 453H353.384L410 255.062H407.995Z" fill="#EA8C55"/>
<path fill-rule="evenodd" clip-rule="evenodd" d="M162.434 241.284L141.077 254.548L187.662 453H195.72L162.434 241.284ZM231.96 453H213.454L184.558 254.304L185.596 254.948L207.472 241.004L231.96 453ZM256.373 453H243.448L229.767 254.846L252.184 240.923L252.922 241.382L256.373 453ZM282.401 453H270.689L273.38 254.088L274.123 254.549L295.874 241.039L282.401 453ZM314.479 453H302.186L318.437 254.821L318.707 254.988L341.354 240.923L341.673 241.121L314.479 453ZM336.291 453H331.627L362.859 254.28L363.292 254.549L385.231 240.923L385.278 240.953L336.291 453ZM119.566 241.189L119.137 240.923L96.3731 255.062H94.3679L150.984 453H173.602L119.566 241.189Z" fill="#CB672C"/>
<path d="M347.723 193.56C315.877 175.886 138.245 231.026 96.4908 220.425C54.7367 209.823 224.584 122.16 315.877 132.765C407.169 143.369 379.569 211.234 347.723 193.56Z" fill="#662E9B"/>
<path d="M298.616 111.037C286.674 98.6585 178.836 125.21 161.62 115.315C144.403 105.419 252.822 61.6299 292.025 76.9303C331.228 92.2308 310.557 123.416 298.616 111.037Z" fill="#662E9B"/>
<path d="M166.553 165.282C218.215 137.005 334.443 166.263 366.123 145.488C397.803 124.714 231.892 81.932 159.016 116.897C86.1399 151.862 114.891 193.559 166.553 165.282Z" fill="#8D5ABE"/>
<path d="M220 99.2515C220 116.648 204.106 130.751 184.5 130.751C164.894 130.751 149 116.648 149 99.2515C149 81.8545 161 68.7515 184.5 79.2515C212.5 70.2515 220 81.8545 220 99.2515Z" fill="#C42847"/>
<path d="M189.5 57C178.5 63 181 79.3333 182 88H185C185.5 81 182.5 66.7579 189.5 61C196.5 55.2421 226 59 236 58C246 57 248.5 58 250 57C251.5 56 248.5 48 246 48C243.5 48 243 52.6 235 55C225 58 200.5 51 189.5 57Z" fill="#C42847"/>
</svg>
