<svg width="500" height="500" viewBox="0 0 500 500" fill="none" xmlns="http://www.w3.org/2000/svg">
<path fill-rule="evenodd" clip-rule="evenodd" d="M409.226 255.304H95.142C103.036 209.921 170.333 174.472 252.184 174.472C334.035 174.472 401.332 209.921 409.226 255.304Z" fill="#FCDFA6"/>
<path fill-rule="evenodd" clip-rule="evenodd" d="M407.995 255.062L385.231 240.923L363.292 254.549L341.354 240.923L318.707 254.988L296.061 240.923L274.123 254.549L252.184 240.923L229.602 254.948L207.599 240.923L185.596 254.948L163.014 240.923L141.076 254.549L119.137 240.923L96.3731 255.062H94.3679L150.984 453H353.384L410 255.062H407.995Z" fill="#EA8C55"/>
<path fill-rule="evenodd" clip-rule="evenodd" d="M162.434 241.284L141.077 254.548L187.662 453H195.72L162.434 241.284ZM231.96 453H213.454L184.558 254.304L185.596 254.948L207.472 241.004L231.96 453ZM256.373 453H243.448L229.767 254.846L252.184 240.923L252.922 241.382L256.373 453ZM282.401 453H270.689L273.38 254.088L274.123 254.549L295.874 241.039L282.401 453ZM314.479 453H302.186L318.437 254.821L318.707 254.988L341.354 240.923L341.673 241.121L314.479 453ZM336.291 453H331.627L362.859 254.28L363.292 254.549L385.231 240.923L385.278 240.953L336.291 453ZM119.566 241.189L119.137 240.923L96.3731 255.062H94.3679L150.984 453H173.602L119.566 241.189Z" fill="#CB672C"/>
<path d="M347.723 193.56C315.877 175.886 138.245 231.026 96.4908 220.425C54.7367 209.823 224.584 122.16 315.877 132.765C407.169 143.369 379.569 211.234 347.723 193.56Z" fill="#00A6ED"/>
<path d="M298.616 111.037C286.674 98.6585 178.836 125.21 161.62 115.315C144.403 105.419 252.822 61.6299 292.025 76.9303C331.228 92.2308 310.557 123.416 298.616 111.037Z" fill="#00A6ED"/>
<path d="M166.553 165.282C218.215 137.005 334.443 166.263 366.123 145.488C397.803 124.714 231.892 81.932 159.016 116.897C86.1399 151.862 114.891 193.559 166.553 165.282Z" fill="#49C9FF"/>
<circle cx="193.5" cy="94.5" r="40.5" fill="url(#paint0_radial_3_137)"/>
<circle cx="193.5" cy="94.5" r="40.5" fill="url(#paint1_linear_3_137)" fill-opacity="0.5"/>
<path fill-rule="evenodd" clip-rule="evenodd" d="M170.963 60.8446C168.605 67.9025 166.804 75.0943 167 80C167.5 92.5 181 120.5 194.5 120.5C208 120.5 219 118.5 221 111.5C221.263 110.581 221.586 109.567 221.931 108.481C224.22 101.295 227.515 90.9496 221 84C215 77.6 206.5 77.3333 203 78C206.833 78.6667 214.6 81.1 215 85.5C215.5 91 212 102.5 207.5 103C203 103.5 181.5 93.5 194.5 73C200.957 62.8175 213.659 64.4441 225.235 69.3349C217.816 59.9915 206.358 54 193.5 54C185.159 54 177.406 56.5218 170.963 60.8446Z" fill="url(#paint2_angular_3_137)"/>
<defs>
<radialGradient id="paint0_radial_3_137" cx="0" cy="0" r="1" gradientUnits="userSpaceOnUse" gradientTransform="translate(193.5 94.5) rotate(90) scale(40.5)">
<stop stop-color="#00A6ED"/>
<stop offset="1" stop-color="#662E9B"/>
</radialGradient>
<linearGradient id="paint1_linear_3_137" x1="223" y1="57.5" x2="153" y2="137" gradientUnits="userSpaceOnUse">
<stop stop-color="#00A6ED"/>
<stop offset="1" stop-color="#662E9B"/>
</linearGradient>
<radialGradient id="paint2_angular_3_137" cx="0" cy="0" r="1" gradientUnits="userSpaceOnUse" gradientTransform="translate(205.243 81.25) rotate(-21.1282) scale(43.6946 42.5896)">
<stop stop-color="#C5D8EA"/>
<stop offset="0.999399" stop-color="#C5D8EA" stop-opacity="0"/>
</radialGradient>
</defs>
</svg>
