<svg width="500" height="500" viewBox="0 0 500 500" fill="none" xmlns="http://www.w3.org/2000/svg">
<path fill-rule="evenodd" clip-rule="evenodd" d="M409.226 254.304H95.142C103.036 208.921 170.333 173.472 252.184 173.472C334.035 173.472 401.332 208.921 409.226 254.304Z" fill="#FCDFA6"/>
<path fill-rule="evenodd" clip-rule="evenodd" d="M407.995 254.062L385.231 239.923L363.292 253.549L341.354 239.923L318.707 253.988L296.061 239.923L274.123 253.549L252.184 239.923L229.602 253.948L207.599 239.923L185.596 253.948L163.014 239.923L141.076 253.549L119.137 239.923L96.3731 254.062H94.3679L150.984 452H353.384L410 254.062H407.995Z" fill="#EA8C55"/>
<path fill-rule="evenodd" clip-rule="evenodd" d="M162.434 240.284L141.077 253.548L187.662 452H195.72L162.434 240.284ZM231.96 452H213.454L184.558 253.304L185.596 253.948L207.472 240.004L231.96 452ZM256.373 452H243.448L229.767 253.846L252.184 239.923L252.922 240.382L256.373 452ZM282.401 452H270.689L273.38 253.088L274.123 253.549L295.874 240.039L282.401 452ZM314.479 452H302.186L318.437 253.821L318.707 253.988L341.354 239.923L341.673 240.121L314.479 452ZM336.291 452H331.627L362.859 253.28L363.292 253.549L385.231 239.923L385.278 239.953L336.291 452ZM119.566 240.189L119.137 239.923L96.3731 254.062H94.3679L150.984 452H173.602L119.566 240.189Z" fill="#CB672C"/>
<path d="M347.723 192.56C315.877 174.886 138.245 230.026 96.4908 219.425C54.7367 208.823 224.584 121.16 315.877 131.765C407.169 142.369 379.569 210.234 347.723 192.56Z" fill="#00A6ED"/>
<path d="M298.616 110.037C286.674 97.6585 178.836 124.21 161.62 114.315C144.403 104.419 252.822 60.6299 292.025 75.9303C331.228 91.2308 310.557 122.416 298.616 110.037Z" fill="#00A6ED"/>
<path d="M166.553 164.282C218.215 136.005 334.443 165.263 366.123 144.488C397.803 123.714 231.892 80.932 159.016 115.897C86.1399 150.862 114.891 192.559 166.553 164.282Z" fill="#49C9FF"/>
<ellipse cx="138.5" cy="184" rx="12.5" ry="13" fill="url(#paint0_radial_3_77)"/>
<ellipse cx="138.5" cy="184" rx="12.5" ry="13" fill="url(#paint1_linear_3_77)" fill-opacity="0.5"/>
<path fill-rule="evenodd" clip-rule="evenodd" d="M131.544 173.197C130.816 175.463 130.26 177.771 130.321 179.346C130.475 183.358 134.642 192.346 138.809 192.346C142.975 192.346 146.37 191.704 146.988 189.457C147.069 189.162 147.168 188.836 147.275 188.488C147.981 186.181 148.998 182.86 146.988 180.63C145.136 178.575 142.512 178.49 141.432 178.704C142.615 178.918 145.012 179.699 145.136 181.111C145.29 182.877 144.21 186.568 142.821 186.728C141.432 186.889 134.796 183.679 138.809 177.099C140.802 173.83 144.722 174.352 148.295 175.922C146.005 172.923 142.468 171 138.5 171C135.925 171 133.533 171.809 131.544 173.197Z" fill="url(#paint2_angular_3_77)"/>
<ellipse cx="161.5" cy="188" rx="12.5" ry="13" fill="url(#paint3_radial_3_77)"/>
<ellipse cx="161.5" cy="188" rx="12.5" ry="13" fill="url(#paint4_linear_3_77)" fill-opacity="0.5"/>
<path fill-rule="evenodd" clip-rule="evenodd" d="M154.544 177.197C153.816 179.463 153.26 181.771 153.321 183.346C153.475 187.358 157.642 196.346 161.809 196.346C165.975 196.346 169.37 195.704 169.988 193.457C170.069 193.162 170.168 192.836 170.275 192.488C170.981 190.181 171.998 186.86 169.988 184.63C168.136 182.575 165.512 182.49 164.432 182.704C165.615 182.918 168.012 183.699 168.136 185.111C168.29 186.877 167.21 190.568 165.821 190.728C164.432 190.889 157.796 187.679 161.809 181.099C163.802 177.83 167.722 178.352 171.295 179.922C169.005 176.923 165.468 175 161.5 175C158.925 175 156.533 175.809 154.544 177.197Z" fill="url(#paint5_angular_3_77)"/>
<circle cx="187" cy="194" r="13" fill="url(#paint6_radial_3_77)"/>
<circle cx="187" cy="194" r="13" fill="url(#paint7_linear_3_77)" fill-opacity="0.5"/>
<path fill-rule="evenodd" clip-rule="evenodd" d="M179.766 183.197C179.009 185.463 178.431 187.771 178.494 189.346C178.654 193.358 182.988 202.346 187.321 202.346C191.654 202.346 195.185 201.704 195.827 199.457C195.911 199.162 196.015 198.836 196.126 198.488C196.861 196.181 197.918 192.86 195.827 190.63C193.901 188.575 191.173 188.49 190.049 188.704C191.28 188.918 193.773 189.699 193.901 191.111C194.062 192.877 192.938 196.568 191.494 196.728C190.049 196.889 183.148 193.679 187.321 187.099C189.394 183.83 193.471 184.352 197.186 185.922C194.805 182.923 191.127 181 187 181C184.322 181 181.834 181.809 179.766 183.197Z" fill="url(#paint8_angular_3_77)"/>
<circle cx="210" cy="197" r="13" fill="url(#paint9_radial_3_77)"/>
<circle cx="210" cy="197" r="13" fill="url(#paint10_linear_3_77)" fill-opacity="0.5"/>
<path fill-rule="evenodd" clip-rule="evenodd" d="M202.766 186.197C202.009 188.463 201.431 190.771 201.494 192.346C201.654 196.358 205.988 205.346 210.321 205.346C214.654 205.346 218.185 204.704 218.827 202.457C218.911 202.162 219.015 201.836 219.126 201.488C219.861 199.181 220.918 195.86 218.827 193.63C216.901 191.575 214.173 191.49 213.049 191.704C214.28 191.918 216.773 192.699 216.901 194.111C217.062 195.877 215.938 199.568 214.494 199.728C213.049 199.889 206.148 196.679 210.321 190.099C212.394 186.83 216.471 187.352 220.186 188.922C217.805 185.923 214.127 184 210 184C207.322 184 204.834 184.809 202.766 186.197Z" fill="url(#paint11_angular_3_77)"/>
<circle cx="236" cy="201" r="13" fill="url(#paint12_radial_3_77)"/>
<circle cx="236" cy="201" r="13" fill="url(#paint13_linear_3_77)" fill-opacity="0.5"/>
<path fill-rule="evenodd" clip-rule="evenodd" d="M228.766 190.197C228.009 192.463 227.431 194.771 227.494 196.346C227.654 200.358 231.988 209.346 236.321 209.346C240.654 209.346 244.185 208.704 244.827 206.457C244.911 206.162 245.015 205.836 245.126 205.488C245.861 203.181 246.918 199.86 244.827 197.63C242.901 195.575 240.173 195.49 239.049 195.704C240.28 195.918 242.773 196.699 242.901 198.111C243.062 199.877 241.938 203.568 240.494 203.728C239.049 203.889 232.148 200.679 236.321 194.099C238.394 190.83 242.471 191.352 246.186 192.922C243.805 189.923 240.127 188 236 188C233.322 188 230.834 188.809 228.766 190.197Z" fill="url(#paint14_angular_3_77)"/>
<ellipse cx="262" cy="202.5" rx="13" ry="12.5" fill="url(#paint15_radial_3_77)"/>
<ellipse cx="262" cy="202.5" rx="13" ry="12.5" fill="url(#paint16_linear_3_77)" fill-opacity="0.5"/>
<path fill-rule="evenodd" clip-rule="evenodd" d="M254.766 192.113C254.009 194.291 253.431 196.511 253.494 198.025C253.654 201.883 257.988 210.525 262.321 210.525C266.654 210.525 270.185 209.907 270.827 207.747C270.911 207.463 271.015 207.15 271.126 206.815C271.861 204.597 272.918 201.404 270.827 199.259C268.901 197.284 266.173 197.202 265.049 197.407C266.28 197.613 268.773 198.364 268.901 199.722C269.062 201.42 267.938 204.969 266.494 205.123C265.049 205.278 258.148 202.191 262.321 195.864C264.394 192.721 268.471 193.223 272.186 194.733C269.805 191.849 266.127 190 262 190C259.322 190 256.834 190.778 254.766 192.113Z" fill="url(#paint17_angular_3_77)"/>
<ellipse cx="287.5" cy="200" rx="12.5" ry="13" fill="url(#paint18_radial_3_77)"/>
<ellipse cx="287.5" cy="200" rx="12.5" ry="13" fill="url(#paint19_linear_3_77)" fill-opacity="0.5"/>
<path fill-rule="evenodd" clip-rule="evenodd" d="M280.544 189.197C279.816 191.463 279.26 193.771 279.321 195.346C279.475 199.358 283.642 208.346 287.809 208.346C291.975 208.346 295.37 207.704 295.988 205.457C296.069 205.162 296.168 204.836 296.275 204.488C296.981 202.181 297.998 198.86 295.988 196.63C294.136 194.575 291.512 194.49 290.432 194.704C291.615 194.918 294.012 195.699 294.136 197.111C294.29 198.877 293.21 202.568 291.821 202.728C290.432 202.889 283.796 199.679 287.809 193.099C289.802 189.83 293.722 190.352 297.295 191.922C295.005 188.923 291.468 187 287.5 187C284.925 187 282.533 187.809 280.544 189.197Z" fill="url(#paint20_angular_3_77)"/>
<circle cx="313" cy="197" r="13" fill="url(#paint21_radial_3_77)"/>
<circle cx="313" cy="197" r="13" fill="url(#paint22_linear_3_77)" fill-opacity="0.5"/>
<path fill-rule="evenodd" clip-rule="evenodd" d="M305.766 186.197C305.009 188.463 304.431 190.771 304.494 192.346C304.654 196.358 308.988 205.346 313.321 205.346C317.654 205.346 321.185 204.704 321.827 202.457C321.911 202.162 322.015 201.836 322.126 201.488C322.861 199.181 323.918 195.86 321.827 193.63C319.901 191.575 317.173 191.49 316.049 191.704C317.28 191.918 319.773 192.699 319.901 194.111C320.062 195.877 318.938 199.568 317.494 199.728C316.049 199.889 309.148 196.679 313.321 190.099C315.394 186.83 319.471 187.352 323.186 188.922C320.805 185.923 317.127 184 313 184C310.322 184 307.834 184.809 305.766 186.197Z" fill="url(#paint23_angular_3_77)"/>
<circle cx="336" cy="197" r="13" fill="url(#paint24_radial_3_77)"/>
<circle cx="336" cy="197" r="13" fill="url(#paint25_linear_3_77)" fill-opacity="0.5"/>
<path fill-rule="evenodd" clip-rule="evenodd" d="M328.766 186.197C328.009 188.463 327.431 190.771 327.494 192.346C327.654 196.358 331.988 205.346 336.321 205.346C340.654 205.346 344.185 204.704 344.827 202.457C344.911 202.162 345.015 201.836 345.126 201.488C345.861 199.181 346.918 195.86 344.827 193.63C342.901 191.575 340.173 191.49 339.049 191.704C340.28 191.918 342.773 192.699 342.901 194.111C343.062 195.877 341.938 199.568 340.494 199.728C339.049 199.889 332.148 196.679 336.321 190.099C338.394 186.83 342.471 187.352 346.186 188.922C343.805 185.923 340.127 184 336 184C333.322 184 330.834 184.809 328.766 186.197Z" fill="url(#paint26_angular_3_77)"/>
<circle cx="359" cy="201" r="13" fill="url(#paint27_radial_3_77)"/>
<circle cx="359" cy="201" r="13" fill="url(#paint28_linear_3_77)" fill-opacity="0.5"/>
<path fill-rule="evenodd" clip-rule="evenodd" d="M351.766 190.197C351.009 192.463 350.431 194.771 350.494 196.346C350.654 200.358 354.988 209.346 359.321 209.346C363.654 209.346 367.185 208.704 367.827 206.457C367.911 206.162 368.015 205.836 368.126 205.488C368.861 203.181 369.918 199.86 367.827 197.63C365.901 195.575 363.173 195.49 362.049 195.704C363.28 195.918 365.773 196.699 365.901 198.111C366.062 199.877 364.938 203.568 363.494 203.728C362.049 203.889 355.148 200.679 359.321 194.099C361.394 190.83 365.471 191.352 369.186 192.922C366.805 189.923 363.127 188 359 188C356.322 188 353.834 188.809 351.766 190.197Z" fill="url(#paint29_angular_3_77)"/>
<circle cx="382" cy="211" r="13" fill="url(#paint30_radial_3_77)"/>
<circle cx="382" cy="211" r="13" fill="url(#paint31_linear_3_77)" fill-opacity="0.5"/>
<path fill-rule="evenodd" clip-rule="evenodd" d="M374.766 200.197C374.009 202.463 373.431 204.771 373.494 206.346C373.654 210.358 377.988 219.346 382.321 219.346C386.654 219.346 390.185 218.704 390.827 216.457C390.911 216.162 391.015 215.836 391.126 215.488C391.861 213.181 392.918 209.86 390.827 207.63C388.901 205.575 386.173 205.49 385.049 205.704C386.28 205.918 388.773 206.699 388.901 208.111C389.062 209.877 387.938 213.568 386.494 213.728C385.049 213.889 378.148 210.679 382.321 204.099C384.394 200.83 388.471 201.352 392.186 202.922C389.805 199.923 386.127 198 382 198C379.322 198 376.834 198.809 374.766 200.197Z" fill="url(#paint32_angular_3_77)"/>
<defs>
<radialGradient id="paint0_radial_3_77" cx="0" cy="0" r="1" gradientUnits="userSpaceOnUse" gradientTransform="translate(138.5 184) rotate(90) scale(13 12.5)">
<stop stop-color="#6DC0E3"/>
<stop offset="1" stop-color="#B588DF"/>
</radialGradient>
<linearGradient id="paint1_linear_3_77" x1="147.605" y1="172.123" x2="125.041" y2="196.764" gradientUnits="userSpaceOnUse">
<stop stop-color="#9DD4EC"/>
<stop offset="1" stop-color="#C1AAD8"/>
</linearGradient>
<radialGradient id="paint2_angular_3_77" cx="0" cy="0" r="1" gradientUnits="userSpaceOnUse" gradientTransform="translate(142.124 179.747) rotate(-21.8947) scale(13.5573 13.5988)">
<stop stop-color="white"/>
<stop offset="0.999399" stop-color="#C5D8EA" stop-opacity="0"/>
</radialGradient>
<radialGradient id="paint3_radial_3_77" cx="0" cy="0" r="1" gradientUnits="userSpaceOnUse" gradientTransform="translate(161.5 188) rotate(90) scale(13 12.5)">
<stop stop-color="#6DC0E3"/>
<stop offset="1" stop-color="#B588DF"/>
</radialGradient>
<linearGradient id="paint4_linear_3_77" x1="170.605" y1="176.123" x2="148.041" y2="200.764" gradientUnits="userSpaceOnUse">
<stop stop-color="#9DD4EC"/>
<stop offset="1" stop-color="#C1AAD8"/>
</linearGradient>
<radialGradient id="paint5_angular_3_77" cx="0" cy="0" r="1" gradientUnits="userSpaceOnUse" gradientTransform="translate(165.124 183.747) rotate(-21.8947) scale(13.5573 13.5988)">
<stop stop-color="white"/>
<stop offset="0.999399" stop-color="#C5D8EA" stop-opacity="0"/>
</radialGradient>
<radialGradient id="paint6_radial_3_77" cx="0" cy="0" r="1" gradientUnits="userSpaceOnUse" gradientTransform="translate(187 194) rotate(90) scale(13)">
<stop stop-color="#6DC0E3"/>
<stop offset="1" stop-color="#B588DF"/>
</radialGradient>
<linearGradient id="paint7_linear_3_77" x1="196.469" y1="182.123" x2="174" y2="207.642" gradientUnits="userSpaceOnUse">
<stop stop-color="#9DD4EC"/>
<stop offset="1" stop-color="#C1AAD8"/>
</linearGradient>
<radialGradient id="paint8_angular_3_77" cx="0" cy="0" r="1" gradientUnits="userSpaceOnUse" gradientTransform="translate(190.769 189.747) rotate(-21.1282) scale(14.0254 13.6707)">
<stop stop-color="white"/>
<stop offset="0.999399" stop-color="#C5D8EA" stop-opacity="0"/>
</radialGradient>
<radialGradient id="paint9_radial_3_77" cx="0" cy="0" r="1" gradientUnits="userSpaceOnUse" gradientTransform="translate(210 197) rotate(90) scale(13)">
<stop stop-color="#6DC0E3"/>
<stop offset="1" stop-color="#B588DF"/>
</radialGradient>
<linearGradient id="paint10_linear_3_77" x1="219.469" y1="185.123" x2="197" y2="210.642" gradientUnits="userSpaceOnUse">
<stop stop-color="#9DD4EC"/>
<stop offset="1" stop-color="#C1AAD8"/>
</linearGradient>
<radialGradient id="paint11_angular_3_77" cx="0" cy="0" r="1" gradientUnits="userSpaceOnUse" gradientTransform="translate(213.769 192.747) rotate(-21.1282) scale(14.0254 13.6707)">
<stop stop-color="white"/>
<stop offset="0.999399" stop-color="#C5D8EA" stop-opacity="0"/>
</radialGradient>
<radialGradient id="paint12_radial_3_77" cx="0" cy="0" r="1" gradientUnits="userSpaceOnUse" gradientTransform="translate(236 201) rotate(90) scale(13)">
<stop stop-color="#6DC0E3"/>
<stop offset="1" stop-color="#B588DF"/>
</radialGradient>
<linearGradient id="paint13_linear_3_77" x1="245.469" y1="189.123" x2="223" y2="214.642" gradientUnits="userSpaceOnUse">
<stop stop-color="#9DD4EC"/>
<stop offset="1" stop-color="#C1AAD8"/>
</linearGradient>
<radialGradient id="paint14_angular_3_77" cx="0" cy="0" r="1" gradientUnits="userSpaceOnUse" gradientTransform="translate(239.769 196.747) rotate(-21.1282) scale(14.0254 13.6707)">
<stop stop-color="white"/>
<stop offset="0.999399" stop-color="#C5D8EA" stop-opacity="0"/>
</radialGradient>
<radialGradient id="paint15_radial_3_77" cx="0" cy="0" r="1" gradientUnits="userSpaceOnUse" gradientTransform="translate(262 202.5) rotate(90) scale(12.5 13)">
<stop stop-color="#6DC0E3"/>
<stop offset="1" stop-color="#B588DF"/>
</radialGradient>
<linearGradient id="paint16_linear_3_77" x1="271.469" y1="191.08" x2="249.987" y2="216.453" gradientUnits="userSpaceOnUse">
<stop stop-color="#9DD4EC"/>
<stop offset="1" stop-color="#C1AAD8"/>
</linearGradient>
<radialGradient id="paint17_angular_3_77" cx="0" cy="0" r="1" gradientUnits="userSpaceOnUse" gradientTransform="translate(265.769 198.41) rotate(-20.3836) scale(13.9565 13.2098)">
<stop stop-color="white"/>
<stop offset="0.999399" stop-color="#C5D8EA" stop-opacity="0"/>
</radialGradient>
<radialGradient id="paint18_radial_3_77" cx="0" cy="0" r="1" gradientUnits="userSpaceOnUse" gradientTransform="translate(287.5 200) rotate(90) scale(13 12.5)">
<stop stop-color="#6DC0E3"/>
<stop offset="1" stop-color="#B588DF"/>
</radialGradient>
<linearGradient id="paint19_linear_3_77" x1="296.605" y1="188.123" x2="274.041" y2="212.764" gradientUnits="userSpaceOnUse">
<stop stop-color="#9DD4EC"/>
<stop offset="1" stop-color="#C1AAD8"/>
</linearGradient>
<radialGradient id="paint20_angular_3_77" cx="0" cy="0" r="1" gradientUnits="userSpaceOnUse" gradientTransform="translate(291.124 195.747) rotate(-21.8947) scale(13.5573 13.5988)">
<stop stop-color="white"/>
<stop offset="0.999399" stop-color="#C5D8EA" stop-opacity="0"/>
</radialGradient>
<radialGradient id="paint21_radial_3_77" cx="0" cy="0" r="1" gradientUnits="userSpaceOnUse" gradientTransform="translate(313 197) rotate(90) scale(13)">
<stop stop-color="#6DC0E3"/>
<stop offset="1" stop-color="#B588DF"/>
</radialGradient>
<linearGradient id="paint22_linear_3_77" x1="322.469" y1="185.123" x2="300" y2="210.642" gradientUnits="userSpaceOnUse">
<stop stop-color="#9DD4EC"/>
<stop offset="1" stop-color="#C1AAD8"/>
</linearGradient>
<radialGradient id="paint23_angular_3_77" cx="0" cy="0" r="1" gradientUnits="userSpaceOnUse" gradientTransform="translate(316.769 192.747) rotate(-21.1282) scale(14.0254 13.6707)">
<stop stop-color="white"/>
<stop offset="0.999399" stop-color="#C5D8EA" stop-opacity="0"/>
</radialGradient>
<radialGradient id="paint24_radial_3_77" cx="0" cy="0" r="1" gradientUnits="userSpaceOnUse" gradientTransform="translate(336 197) rotate(90) scale(13)">
<stop stop-color="#6DC0E3"/>
<stop offset="1" stop-color="#B588DF"/>
</radialGradient>
<linearGradient id="paint25_linear_3_77" x1="345.469" y1="185.123" x2="323" y2="210.642" gradientUnits="userSpaceOnUse">
<stop stop-color="#9DD4EC"/>
<stop offset="1" stop-color="#C1AAD8"/>
</linearGradient>
<radialGradient id="paint26_angular_3_77" cx="0" cy="0" r="1" gradientUnits="userSpaceOnUse" gradientTransform="translate(339.769 192.747) rotate(-21.1282) scale(14.0254 13.6707)">
<stop stop-color="white"/>
<stop offset="0.999399" stop-color="#C5D8EA" stop-opacity="0"/>
</radialGradient>
<radialGradient id="paint27_radial_3_77" cx="0" cy="0" r="1" gradientUnits="userSpaceOnUse" gradientTransform="translate(359 201) rotate(90) scale(13)">
<stop stop-color="#6DC0E3"/>
<stop offset="1" stop-color="#B588DF"/>
</radialGradient>
<linearGradient id="paint28_linear_3_77" x1="368.469" y1="189.123" x2="346" y2="214.642" gradientUnits="userSpaceOnUse">
<stop stop-color="#9DD4EC"/>
<stop offset="1" stop-color="#C1AAD8"/>
</linearGradient>
<radialGradient id="paint29_angular_3_77" cx="0" cy="0" r="1" gradientUnits="userSpaceOnUse" gradientTransform="translate(362.769 196.747) rotate(-21.1282) scale(14.0254 13.6707)">
<stop stop-color="white"/>
<stop offset="0.999399" stop-color="#C5D8EA" stop-opacity="0"/>
</radialGradient>
<radialGradient id="paint30_radial_3_77" cx="0" cy="0" r="1" gradientUnits="userSpaceOnUse" gradientTransform="translate(382 211) rotate(90) scale(13)">
<stop stop-color="#6DC0E3"/>
<stop offset="1" stop-color="#B588DF"/>
</radialGradient>
<linearGradient id="paint31_linear_3_77" x1="391.469" y1="199.123" x2="369" y2="224.642" gradientUnits="userSpaceOnUse">
<stop stop-color="#9DD4EC"/>
<stop offset="1" stop-color="#C1AAD8"/>
</linearGradient>
<radialGradient id="paint32_angular_3_77" cx="0" cy="0" r="1" gradientUnits="userSpaceOnUse" gradientTransform="translate(385.769 206.747) rotate(-21.1282) scale(14.0254 13.6707)">
<stop stop-color="white"/>
<stop offset="0.999399" stop-color="#C5D8EA" stop-opacity="0"/>
</radialGradient>
</defs>
</svg>
