<svg width="500" height="500" viewBox="0 0 500 500" fill="none" xmlns="http://www.w3.org/2000/svg">
<path fill-rule="evenodd" clip-rule="evenodd" d="M409.226 254.304H95.1418C103.035 208.921 170.333 173.472 252.184 173.472C334.035 173.472 401.332 208.921 409.226 254.304Z" fill="#FCDFA6"/>
<path fill-rule="evenodd" clip-rule="evenodd" d="M407.995 254.062L385.231 239.923L363.292 253.549L341.354 239.923L318.707 253.988L296.061 239.923L274.123 253.549L252.184 239.923L229.602 253.948L207.599 239.923L185.596 253.948L163.014 239.923L141.076 253.549L119.137 239.923L96.3731 254.062H94.3679L150.984 452H353.384L410 254.062H407.995Z" fill="#EA8C55"/>
<path fill-rule="evenodd" clip-rule="evenodd" d="M162.434 240.284L141.077 253.548L187.662 452H195.72L162.434 240.284ZM231.96 452H213.454L184.558 253.304L185.596 253.948L207.472 240.004L231.96 452ZM256.373 452H243.448L229.767 253.846L252.184 239.923L252.922 240.382L256.373 452ZM282.401 452H270.689L273.38 253.088L274.123 253.549L295.874 240.039L282.401 452ZM314.479 452H302.186L318.437 253.821L318.707 253.988L341.354 239.923L341.673 240.121L314.479 452ZM336.291 452H331.627L362.859 253.28L363.292 253.549L385.231 239.923L385.278 239.953L336.291 452ZM119.566 240.189L119.137 239.923L96.3731 254.062H94.3679L150.984 452H173.602L119.566 240.189Z" fill="#CB672C"/>
<path d="M347.723 192.56C315.877 174.886 138.245 230.026 96.4908 219.425C54.7367 208.823 224.584 121.16 315.877 131.765C407.169 142.369 379.569 210.234 347.723 192.56Z" fill="#62C370"/>
<path d="M298.616 110.037C286.674 97.6585 178.836 124.21 161.62 114.315C144.403 104.419 252.822 60.6299 292.025 75.9303C331.228 91.2308 310.557 122.416 298.616 110.037Z" fill="#62C370"/>
<path d="M166.553 164.282C218.214 136.005 334.442 165.263 366.123 144.488C397.803 123.714 231.892 80.932 159.016 115.897C86.1398 150.862 114.891 192.559 166.553 164.282Z" fill="#90E09B"/>
<path d="M313.827 90.3723C313.827 90.3723 323.368 110.176 326.189 119.417C329.009 128.659 326.189 136.697 326.189 136.697C326.189 136.697 331.85 131.033 339.021 127.998C346.191 124.964 372.145 116.966 372.145 116.966C372.145 116.966 361.464 140.147 356.183 145.161C350.903 150.176 341.604 155.001 341.604 155.001C341.604 155.001 354.203 156.777 361.464 159.684C368.725 162.591 386.549 176.721 386.549 176.721C386.549 176.721 362.784 184.374 352.773 182.127C342.761 179.881 336.102 177.825 336.102 177.825C336.102 177.825 344.192 184.768 346.191 192.029C348.19 199.29 346.191 224.641 346.191 224.641C346.191 224.641 327.689 211.172 323.068 204.571C318.447 197.97 313.827 187.983 313.827 187.983C313.827 187.983 311.846 196.65 309.206 201.27C306.565 205.891 281.462 224.641 281.462 224.641C281.462 224.641 282.696 201.931 286.049 192.029C289.403 182.127 291.551 177.825 291.551 177.825C291.551 177.825 286.049 181.467 277.521 182.127C268.992 182.787 241.104 176.721 241.104 176.721C241.104 176.721 264.319 161.664 269.599 159.684C274.88 157.703 286.049 155.001 286.049 155.001C286.049 155.001 277.502 152.422 271.58 145.161C265.658 137.9 255.508 116.966 255.508 116.966C255.508 116.966 284.458 124.038 291.551 127.998C298.644 131.959 301.464 136.697 301.464 136.697C301.464 136.697 299.304 126.018 301.464 119.417C303.625 112.816 313.827 90.3723 313.827 90.3723Z" fill="#206D2B"/>
<path d="M284.323 97.2028C284.323 97.2028 301.597 110.798 308.192 117.86C314.787 124.921 315.786 133.381 315.786 133.381C315.786 133.381 318.382 125.805 323.489 119.929C328.597 114.052 348.395 95.4613 348.395 95.4613C348.395 95.4613 348.988 120.978 346.449 127.803C343.909 134.628 337.676 143.048 337.676 143.048C337.676 143.048 349.774 139.107 357.574 138.527C365.374 137.947 387.594 142.807 387.594 142.807C387.594 142.807 369.611 160.125 359.631 162.507C349.65 164.888 342.765 165.968 342.765 165.968C342.765 165.968 353.083 168.65 358.07 174.293C363.057 179.937 372.402 203.587 372.402 203.587C372.402 203.587 349.863 199.62 342.811 195.721C335.76 191.822 327.22 184.882 327.22 184.882C327.22 184.882 329.25 193.537 328.909 198.848C328.568 204.159 314.259 232.033 314.259 232.033C314.259 232.033 305.386 211.092 304.047 200.724C302.708 190.356 302.747 185.547 302.747 185.547C302.747 185.547 299.405 191.237 292.035 195.578C284.664 199.919 256.948 206.725 256.948 206.725C256.948 206.725 271.183 182.998 275.056 178.899C278.929 174.799 287.774 167.463 287.774 167.463C287.774 167.463 278.963 168.904 270.453 164.984C261.942 161.064 243.625 146.72 243.625 146.72C243.625 146.72 272.737 140.35 280.849 140.79C288.962 141.231 293.577 144.247 293.577 144.247C293.577 144.247 286.944 135.604 285.983 128.725C285.022 121.846 284.323 97.2028 284.323 97.2028Z" fill="#467D4E"/>
<circle cx="314.597" cy="157.31" r="26.4043" fill="#E1C011"/>
</svg>
